<svg xmlns="http://www.w3.org/2000/svg" width="64" height="64" viewBox="0 0 64 64">
  <defs>
    <linearGradient id="bg" x1="0" y1="0" x2="1" y2="1">
      <stop offset="0" stop-color="#10B981"/>
      <stop offset="0.6" stop-color="#10B981"/>
      <stop offset="1" stop-color="#047857"/>
    </linearGradient>
    <linearGradient id="sheen" x1="0" y1="0" x2="1" y2="1">
      <stop offset="0" stop-color="#FFFFFF" stop-opacity="0.3"/>
      <stop offset="0.5" stop-color="#FFFFFF" stop-opacity="0.05"/>
      <stop offset="1" stop-color="#FFFFFF" stop-opacity="0"/>
    </linearGradient>
  </defs>
  <rect width="64" height="64" rx="15.36" fill="url(#bg)"/>
  <rect width="64" height="64" rx="15.36" fill="url(#sheen)"/>
  <g transform="translate(14.079999999999998 14.079999999999998) scale(1.4933333333333334)"
     fill="none" stroke="#FFFFFF" stroke-width="2.25" stroke-linecap="round" stroke-linejoin="round">
    
  <path d="M19 7V4a1 1 0 0 0-1-1H5a2 2 0 0 0 0 4h15a1 1 0 0 1 1 1v4h-3a2 2 0 0 0 0 4h3a1 1 0 0 0 1-1v-2a1 1 0 0 0-1-1"/>
  <path d="M3 5v14a2 2 0 0 0 2 2h15a1 1 0 0 0 1-1v-4"/>

  </g>
</svg>