<?xml version="1.0" encoding="UTF-8"?>
<svg version="1.1" xmlns="http://www.w3.org/2000/svg" width="558" height="559">
<path d="M0 0 C184.14 0 368.28 0 558 0 C558 184.47 558 368.94 558 559 C373.86 559 189.72 559 0 559 C0 374.53 0 190.06 0 0 Z " fill="#00BF63" transform="translate(0,0)"/>
<path d="M0 0 C1.73830078 0.90105469 1.73830078 0.90105469 3.51171875 1.8203125 C13.32120937 7.07108128 21.59014327 13.77270706 30 21 C30.95132812 21.80824219 31.90265625 22.61648437 32.8828125 23.44921875 C53.70249615 41.62565102 69.91287317 65.91764545 79 92 C79.67289062 93.86205078 79.67289062 93.86205078 80.359375 95.76171875 C85.28525763 109.68533258 88.10748316 123.69239422 88.23828125 138.44921875 C88.246353 139.34252396 88.25442474 140.23582916 88.26274109 141.15620422 C88.27650857 143.04462796 88.28726317 144.93307582 88.29516602 146.8215332 C88.3065817 148.70897989 88.32686395 150.59639703 88.35668945 152.48364258 C88.64851464 171.02187808 86.2378848 188.48567756 79.9375 206 C79.55464844 207.08176514 79.17179687 208.16353027 78.77734375 209.27807617 C73.02032732 224.99569976 65.14150463 239.68119338 55 253 C54.04673828 254.28583984 54.04673828 254.28583984 53.07421875 255.59765625 C37.06756341 276.20428245 17.08308385 292.07352967 -6 304 C-6.99257813 304.52851563 -7.98515625 305.05703125 -9.0078125 305.6015625 C-32.65923193 317.39573699 -57.23748214 321.2190567 -83.3125 321.3125 C-84.0702774 321.31644775 -84.82805481 321.32039551 -85.60879517 321.32446289 C-101.59586228 321.36432927 -116.6405519 319.64505965 -132 315 C-133.21300781 314.64035156 -134.42601562 314.28070313 -135.67578125 313.91015625 C-178.40441554 300.50951804 -214.00107201 269.2268605 -234.9765625 229.9453125 C-247.12877543 206.50642888 -254.18847591 180.41159005 -254.18530273 153.97583008 C-254.18746899 151.96626705 -254.20592114 149.95674292 -254.22460938 147.94726562 C-254.28770526 105.06309474 -237.06092361 64.25904848 -208 33 C-207.51563477 32.47712402 -207.03126953 31.95424805 -206.53222656 31.41552734 C-154.0725693 -24.56597064 -66.80060765 -37.33636656 0 0 Z " fill="#FDFEFE" transform="translate(362,129)"/>
<path d="M0 0 C70.95 0 141.9 0 215 0 C212.30061374 1.79959084 209.63482711 3.21688283 206.75 4.6875 C197.09972636 9.96400008 190.2317608 17.64474165 186.99609375 28.30859375 C185.72876266 33.99627772 184.8524492 39.0335564 185.26953125 44.8359375 C185.8390799 54.68555139 185.8390799 54.68555139 184 59 C179.5780207 63.50170248 173.3188831 65.59452427 167.5703125 67.91259766 C163.69333274 69.55280167 160.11040341 71.59545296 156.5 73.75 C155.81510498 74.15436279 155.13020996 74.55872559 154.42456055 74.9753418 C131.13377818 89.0234494 109.70998135 107.53294288 93 129 C92.21238281 129.97066406 91.42476563 130.94132813 90.61328125 131.94140625 C69.61139807 158.2844277 54.23972807 190.13231434 47 223 C46.6545364 224.37491208 46.30412705 225.74858931 45.94921875 227.12109375 C41.91784835 242.88739898 40.66758241 258.5257676 40.79418945 274.76928711 C40.81257352 277.19720961 40.81469697 279.62474897 40.81445312 282.05273438 C40.84372043 296.16154008 41.42594796 309.89998773 44.375 323.75 C44.58382812 324.78253906 44.79265625 325.81507813 45.0078125 326.87890625 C55.18369436 376.20711404 80.80580455 425.39659949 120 458 C120.89589844 458.79535156 121.79179688 459.59070313 122.71484375 460.41015625 C134.20799239 470.55204563 146.85706779 479.25776095 160.1875 486.8125 C160.82550537 487.18479736 161.46351074 487.55709473 162.12084961 487.94067383 C165.52139012 489.86226959 168.7165182 491.28060616 172.48046875 492.34375 C181.15214945 495.06601117 181.15214945 495.06601117 184 499 C185.90574193 505.86646348 185.69343736 512.91521749 185.63671875 519.984375 C185.74928247 531.35096526 190.9635925 541.11342382 199 549 C204.91619412 553.64843824 210.57161704 556.73857648 218 558 C218 558.33 218 558.66 218 559 C146.06 559 74.12 559 0 559 C0 374.53 0 190.06 0 0 Z " fill="#FEFEFE" transform="translate(0,0)"/>
<path d="M0 0 C70.95 0 141.9 0 215 0 C215 184.47 215 368.94 215 559 C143.72 559 72.44 559 -1 559 C1.84488504 557.10340998 4.58630957 555.7965444 7.6875 554.375 C18.57201876 548.90651286 24.11180334 541.06574375 29 530 C29.91580429 526.26072991 30.18392295 522.66623447 30.31640625 518.82421875 C30.35830078 517.66728516 30.40019531 516.51035156 30.44335938 515.31835938 C30.48267578 514.12017578 30.52199219 512.92199219 30.5625 511.6875 C30.60568359 510.46998047 30.64886719 509.25246094 30.69335938 507.99804688 C30.79921496 504.9988053 30.90129726 501.99948409 31 499 C31.50225098 498.76925781 32.00450195 498.53851563 32.52197266 498.30078125 C59.42749388 485.88756608 82.43876697 470.40348701 104 450 C104.92941406 449.12472656 105.85882813 448.24945313 106.81640625 447.34765625 C113.4157638 440.95482198 119.12150859 434.14119224 124.62939453 426.81494141 C125.97456405 425.03368202 127.34269526 423.27223912 128.71484375 421.51171875 C144.90403296 400.44339677 155.84591899 376.6779017 164.13916016 351.58691406 C164.68771804 349.93844006 165.24861924 348.29398605 165.82568359 346.65527344 C168.66122406 338.53394463 170.04207053 330.19958911 171.51367188 321.74365234 C171.95460492 319.25609937 172.43465978 316.77956775 172.921875 314.30078125 C181.91619755 265.13250288 171.51440501 211.64264688 148 168 C147.65356445 167.34725098 147.30712891 166.69450195 146.95019531 166.02197266 C137.3934052 148.09315461 125.6862429 132.21008722 111.98828125 117.2109375 C110.4039618 115.44919917 108.90609002 113.66911213 107.4375 111.8125 C104.88097236 108.86266042 102.16990516 106.41494726 99.19921875 103.89453125 C97.73517729 102.63332324 96.29946368 101.33845457 94.89453125 100.01171875 C76.31906396 82.52328397 53.67858024 70.27705472 31 59 C30.9906543 58.26998779 30.98130859 57.53997559 30.97167969 56.7878418 C30.91737937 53.42042357 30.83385118 50.054307 30.75 46.6875 C30.73582031 45.53958984 30.72164063 44.39167969 30.70703125 43.20898438 C30.34561301 30.45092034 26.60843703 20.52548702 18 11 C12.53545457 6.24671286 6.88229858 3.16664955 0 1 C0 0.67 0 0.34 0 0 Z " fill="#FEFEFE" transform="translate(343,0)"/>
<path d="M0 0 C0.81901377 -0.00453111 1.63802755 -0.00906223 2.48185992 -0.01373065 C5.21222832 -0.02633906 7.94239633 -0.02475658 10.67279053 -0.02310181 C12.63624832 -0.02908931 14.59970376 -0.03589537 16.56315613 -0.04345703 C21.88770318 -0.06110247 27.21218591 -0.06581183 32.53675938 -0.0670886 C35.86648029 -0.06851169 39.19618493 -0.07278429 42.52590179 -0.07808304 C54.15120987 -0.09657913 65.77647213 -0.10475425 77.40179443 -0.10317993 C88.22348228 -0.10197894 99.04497055 -0.12307411 109.8666079 -0.15466726 C119.16961357 -0.18085509 128.47255415 -0.19154616 137.77559638 -0.19026911 C143.32648472 -0.18976018 148.87719568 -0.19540534 154.42804718 -0.21662521 C159.65170273 -0.23604953 164.87501245 -0.23610331 170.0986805 -0.22159195 C172.00978923 -0.2195079 173.92091984 -0.22418052 175.8319912 -0.23631287 C189.28588893 -0.31615432 200.44169523 0.25130307 210.65618896 10.04476929 C218.77838915 19.32495384 219.41324348 29.26706437 218.8192749 41.12680054 C218.06787645 48.51274404 213.42511386 54.5731932 208.00390625 59.38700867 C196.71569888 68.22254534 183.71007398 66.92070834 170.11712646 66.75570679 C167.84742008 66.74636705 165.57770352 66.73925643 163.3079834 66.73426819 C157.36976692 66.71528998 151.4321739 66.6662686 145.49420166 66.61074829 C139.42067902 66.5593571 133.34705443 66.53671186 127.27337646 66.51156616 C115.38243519 66.45814051 103.49211801 66.37028007 91.60150146 66.26742554 C91.60150146 74.51742554 91.60150146 82.76742554 91.60150146 91.26742554 C95.3952124 91.20941772 99.18892334 91.15140991 103.09759521 91.09164429 C106.79117749 91.05259761 110.48473635 91.0222676 114.17840576 90.99276733 C116.73612846 90.96769638 119.29378002 90.93363086 121.85125732 90.89022827 C125.53771564 90.82925358 129.22322283 90.80114 132.91009521 90.77914429 C134.04482773 90.75333786 135.17956024 90.72753143 136.34867859 90.70094299 C145.16194156 90.69786242 150.6501029 92.94465857 157.35150146 98.57992554 C163.53092766 105.96090682 166.10116054 112.00973761 166.00384521 121.70883179 C165.02262551 130.38738667 160.47721839 137.28873127 153.92181396 142.86508179 C146.48763479 147.35812947 139.93973418 147.68038498 131.44525146 147.56039429 C130.30237671 147.55614944 129.15950195 147.5519046 127.98199463 147.54753113 C124.35491738 147.53082528 120.72840896 147.4931871 117.10150146 147.45492554 C114.63275953 147.43986828 112.16400882 147.4261817 109.69525146 147.41390991 C103.6638095 147.38094825 97.63269614 147.33082957 91.60150146 147.26742554 C91.61038391 148.25999359 91.61926636 149.25256165 91.62841797 150.27520752 C91.70974893 159.66092778 91.76958403 169.04657589 91.80875015 178.4325695 C91.82956331 183.25722903 91.85776547 188.08160248 91.90325928 192.90609741 C91.94694189 197.56806345 91.97068567 202.22975553 91.98101044 206.89191055 C91.98836177 208.6644026 92.00271667 210.43688083 92.02442169 212.20925522 C92.17318553 224.86833813 91.59479351 234.8863526 82.44915771 244.51742554 C76.05168931 250.57676137 69.07623314 254.3297588 60.10150146 254.57992554 C50.24829609 254.18579732 41.74272477 251.4160598 34.41400146 244.70492554 C25.75759042 235.2481675 24.88114899 225.36082691 25.03387451 213.05575562 C25.03528757 211.44824264 25.03448797 209.84072644 25.03166199 208.23321533 C25.03023648 203.90107209 25.05948453 199.5696312 25.09453177 195.23765016 C25.12594087 190.69867727 25.12873743 186.15968553 25.13465881 181.62062073 C25.15015472 173.03954411 25.19112516 164.45878872 25.24140626 155.8778531 C25.29743266 146.10273881 25.32481956 136.3276086 25.34988344 126.55237353 C25.40204512 106.45721207 25.48990408 86.3623391 25.60150146 66.26742554 C24.57379639 66.29884644 23.54609131 66.33026733 22.48724365 66.36264038 C18.61843098 66.47249725 14.74975125 66.5405695 10.87982178 66.59701538 C9.2155223 66.6269072 7.55137643 66.66763756 5.88763428 66.72006226 C-5.97922002 67.0842076 -15.56299042 66.43258564 -24.85064697 58.05575562 C-31.81536433 50.91085899 -34.74296821 44.23889821 -34.83599854 34.26742554 C-34.64851791 23.48791035 -31.99050007 16.0646163 -24.39849854 8.26742554 C-16.92566658 2.08847615 -9.68880988 -0.03978881 0 0 Z " fill="#00BF63" transform="translate(190.39849853515625,165.73257446289063)"/>
<path d="M0 0 C7.59 0 15.18 0 23 0 C23.66 3.3 24.32 6.6 25 10 C28.21564524 21.1099781 34.29955044 28.65713173 44.19921875 34.55859375 C48.05488542 36.54289082 51.82602103 37.83675996 56 39 C56 39.33 56 39.66 56 40 C26.96 40 -2.08 40 -32 40 C-29.91132961 37.91132961 -28.57702681 37.32327894 -25.875 36.25 C-15.59073171 31.75063262 -8.07086096 24.41654781 -3.6875 14 C-1.90631394 9.35763272 -1.10881149 4.98965169 0 0 Z " fill="#FCFEFD" transform="translate(268,519)"/>
<path d="M0 0 C27.39 0 54.78 0 83 0 C80 2 80 2 77.36328125 3.41015625 C65.91943793 9.60829418 59.54488495 17.04450117 54.8125 29 C53.71298514 32.78297093 53.71298514 32.78297093 53 40 C45.41 40 37.82 40 30 40 C29.34 36.7 28.68 33.4 28 30 C24.01149334 18.26909806 16.59741151 9.04870575 5.5 3.5 C3.67416865 2.65035571 1.84329894 1.81105153 0 1 C0 0.67 0 0.34 0 0 Z " fill="#FCFEFD" transform="translate(238,0)"/>
</svg>
